# xmcd
#
# Track frame offsets: 
#        182
#        18175
#        37450
#        49942
#        63145
#        74865
#        85242
#        98065
#        109312
#        121907
#        137195
#
# Disc length: 2005 seconds
#
# Revision: 5
# Processed by: cddbd v1.4PL0 Copyright (c) Steve Scherf et al.
# Submitted via: ExactAudioCopy v0.90b4
#
DISCID=a107d30b
DTITLE=Reba McEntire - American Legends (Best Of The Early Years)
DYEAR=1994
DGENRE=Country
TTITLE0=I've Never Stopped Dreaming Of You
TTITLE1=You Really Better Love Me After This
TTITLE2=I'm Not That Lonely Yet
TTITLE3=Gonna Love Ya (Till The Cows Come Home)
TTITLE4=Waitin' For The Sun To Shine
TTITLE5=Over, Under And Around
TTITLE6=Only You (And You Alone)
TTITLE7=Can't Even Get The Blues
TTITLE8=(You Lift Me) Up To Heaven
TTITLE9=Everything I'll Ever Own
TTITLE10=Nickel Dreams
EXTD=
EXTT0=
EXTT1=
EXTT2=
EXTT3=
EXTT4=
EXTT5=
EXTT6=
EXTT7=
EXTT8=
EXTT9=
EXTT10=
PLAYORDER=
